<svg xmlns="http://www.w3.org/2000/svg" viewBox="0 0 53 31" width="424" height="248" shape-rendering="crispEdges">
  <g fill="#E53935">
    <rect x="44" y="8" width="1" height="1"/>
    <rect x="44" y="7" width="9" height="1"/>
    <rect x="44" y="9" width="9" height="1"/>
    <rect x="45" y="6" width="2" height="1"/>
    <rect x="45" y="10" width="7" height="1"/>
    <rect x="46" y="11" width="5" height="1"/>
    <rect x="46" y="8" width="7" height="1"/>
    <rect x="47" y="12" width="3" height="1"/>
    <rect x="48" y="13" width="1" height="1"/>
    <rect x="49" y="6" width="2" height="1"/>
  </g>
  <g fill="black">
    <rect x="0" y="3" width="3" height="15"/>
    <rect x="0" y="0" width="43" height="3"/>
    <rect x="0" y="18" width="43" height="3"/>
    <rect x="8" y="8" width="2" height="1"/>
    <rect x="8" y="13" width="3" height="1"/>
    <rect x="9" y="7" width="1" height="1"/>
    <rect x="9" y="9" width="1" height="4"/>
    <rect x="10" y="25" width="1" height="5"/>
    <rect x="11" y="30" width="3" height="1"/>
    <rect x="11" y="24" width="4" height="1"/>
    <rect x="12" y="27" width="3" height="1"/>
    <rect x="13" y="8" width="1" height="3"/>
    <rect x="13" y="12" width="1" height="1"/>
    <rect x="13" y="11" width="2" height="1"/>
    <rect x="14" y="28" width="1" height="2"/>
    <rect x="14" y="7" width="3" height="1"/>
    <rect x="14" y="13" width="3" height="1"/>
    <rect x="15" y="10" width="1" height="1"/>
    <rect x="16" y="25" width="1" height="2"/>
    <rect x="16" y="28" width="1" height="3"/>
    <rect x="16" y="9" width="2" height="1"/>
    <rect x="16" y="27" width="5" height="1"/>
    <rect x="17" y="8" width="1" height="1"/>
    <rect x="17" y="10" width="1" height="3"/>
    <rect x="17" y="24" width="3" height="1"/>
    <rect x="19" y="8" width="1" height="3"/>
    <rect x="19" y="12" width="1" height="1"/>
    <rect x="19" y="11" width="2" height="1"/>
    <rect x="20" y="25" width="1" height="2"/>
    <rect x="20" y="28" width="1" height="3"/>
    <rect x="20" y="7" width="3" height="1"/>
    <rect x="20" y="13" width="3" height="1"/>
    <rect x="21" y="10" width="1" height="1"/>
    <rect x="22" y="24" width="1" height="1"/>
    <rect x="22" y="26" width="1" height="5"/>
    <rect x="22" y="9" width="2" height="1"/>
    <rect x="22" y="25" width="2" height="1"/>
    <rect x="23" y="8" width="1" height="1"/>
    <rect x="23" y="10" width="1" height="3"/>
    <rect x="24" y="26" width="1" height="2"/>
    <rect x="25" y="7" width="1" height="3"/>
    <rect x="25" y="11" width="1" height="3"/>
    <rect x="25" y="25" width="2" height="1"/>
    <rect x="25" y="10" width="5" height="1"/>
    <rect x="26" y="24" width="1" height="1"/>
    <rect x="26" y="26" width="1" height="5"/>
    <rect x="28" y="24" width="3" height="1"/>
    <rect x="28" y="30" width="3" height="1"/>
    <rect x="29" y="7" width="1" height="3"/>
    <rect x="29" y="11" width="1" height="3"/>
    <rect x="29" y="25" width="1" height="5"/>
    <rect x="31" y="8" width="1" height="2"/>
    <rect x="31" y="11" width="1" height="3"/>
    <rect x="31" y="7" width="4" height="1"/>
    <rect x="31" y="10" width="4" height="1"/>
    <rect x="32" y="24" width="1" height="1"/>
    <rect x="32" y="26" width="1" height="5"/>
    <rect x="32" y="25" width="2" height="1"/>
    <rect x="34" y="26" width="1" height="1"/>
    <rect x="35" y="8" width="1" height="2"/>
    <rect x="35" y="27" width="2" height="1"/>
    <rect x="36" y="24" width="1" height="3"/>
    <rect x="36" y="28" width="1" height="3"/>
    <rect x="38" y="25" width="1" height="5"/>
    <rect x="39" y="30" width="3" height="1"/>
    <rect x="39" y="24" width="4" height="1"/>
    <rect x="40" y="3" width="3" height="15"/>
    <rect x="40" y="27" width="3" height="1"/>
    <rect x="42" y="28" width="1" height="2"/>
  </g>
  <g fill="white">
    <rect x="45" y="8" width="1" height="1"/>
  </g>
</svg>