<svg xmlns="http://www.w3.org/2000/svg" xmlns:xlink="http://www.w3.org/1999/xlink" viewBox="0 0 475.91 82.77"><defs><style>.cls-1{fill:none;}.cls-2{clip-path:url(#clip-path);}.cls-3{fill:url(#Безымянный_градиент_9);}.cls-4{fill:#212322;}.cls-5{fill:url(#Безымянный_градиент_9-2);}.cls-6{fill:url(#Безымянный_градиент_9-3);}.cls-7{fill:url(#Безымянный_градиент_9-4);}.cls-8{fill:url(#Безымянный_градиент_9-5);}.cls-9{fill:url(#Безымянный_градиент_9-6);}.cls-10{fill:url(#Безымянный_градиент_9-7);}.cls-11{fill:url(#Безымянный_градиент_9-8);}.cls-12{fill:url(#Безымянный_градиент_9-9);}</style><clipPath id="clip-path"><rect class="cls-1" width="475.91" height="82.77"/></clipPath><linearGradient id="Безымянный_градиент_9" x1="73" y1="76.85" x2="7.3" y2="11.16" gradientTransform="matrix(1, 0, 0, -1, 0, 84.15)" gradientUnits="userSpaceOnUse"><stop offset="0" stop-color="#2eff71"/><stop offset="1" stop-color="#009148"/></linearGradient><linearGradient id="Безымянный_градиент_9-2" x1="304.01" y1="170.11" x2="216.48" y2="19.9" xlink:href="#Безымянный_градиент_9"/><linearGradient id="Безымянный_градиент_9-3" x1="342.53" y1="147.66" x2="255" y2="-2.55" xlink:href="#Безымянный_градиент_9"/><linearGradient id="Безымянный_градиент_9-4" x1="359.94" y1="137.52" x2="272.41" y2="-12.69" xlink:href="#Безымянный_градиент_9"/><linearGradient id="Безымянный_градиент_9-5" x1="380.11" y1="125.76" x2="292.58" y2="-24.45" xlink:href="#Безымянный_градиент_9"/><linearGradient id="Безымянный_градиент_9-6" x1="407.12" y1="110.03" x2="319.6" y2="-40.15" xlink:href="#Безымянный_градиент_9"/><linearGradient id="Безымянный_градиент_9-7" x1="437.69" y1="92.21" x2="350.17" y2="-58" xlink:href="#Безымянный_градиент_9"/><linearGradient id="Безымянный_градиент_9-8" x1="456.81" y1="81.08" x2="369.28" y2="-69.13" xlink:href="#Безымянный_градиент_9"/><linearGradient id="Безымянный_градиент_9-9" x1="481.38" y1="66.75" x2="393.86" y2="-83.46" xlink:href="#Безымянный_градиент_9"/></defs><g id="Слой_2" data-name="Слой 2"><g id="Слой_1-2" data-name="Слой 1"><g class="cls-2"><path class="cls-3" d="M82.77,73.23a9.54,9.54,0,1,1-9.54-9.54A9.54,9.54,0,0,1,82.77,73.23ZM57.69,57.69A29,29,0,0,1,0,53.74V1.1A1.1,1.1,0,0,1,1.1,0H53.74a29,29,0,0,1,3.95,57.69Zm9-28.71a12.92,12.92,0,0,0-13-13H16.55a.55.55,0,0,0-.55.55v37.2a12.92,12.92,0,0,0,13,13,12.67,12.67,0,0,0,12.86-13L41.91,43A1.11,1.11,0,0,1,43,41.9l10.77-.06A12.67,12.67,0,0,0,66.74,29"/><path class="cls-4" d="M114.53,67.64v-56c.8,0,1.93,0,3.4,0s3,0,4.72,0,3.33,0,5,0,3,0,4,0A32.68,32.68,0,0,1,142.37,13a18.49,18.49,0,0,1,7,4.12,15.22,15.22,0,0,1,3.8,6,21.27,21.27,0,0,1,1.16,7,19.1,19.1,0,0,1-1.4,7.16,17.48,17.48,0,0,1-4.08,6,19.62,19.62,0,0,1-6.52,4.12,23.62,23.62,0,0,1-8.72,1.52c-.59,0-1.52,0-2.8,0s-2.43-.09-3.44-.2v19Zm18.4-44.16c-.85,0-1.67,0-2.44,0l-3.16.12v12.8c.91.11,1.88.2,2.92.28s2,.12,2.92.12a11.21,11.21,0,0,0,2.6-.32,6.87,6.87,0,0,0,2.4-1.08,6,6,0,0,0,1.8-2.08,7.06,7.06,0,0,0,.72-3.4c0-2.51-.72-4.21-2.16-5.12A10.35,10.35,0,0,0,132.93,23.48Z"/><path class="cls-4" d="M161.89,11.64H163c.75,0,1.85,0,3.32,0l4.68-.08,4.84-.08c1.57,0,2.81,0,3.72,0a41,41,0,0,1,14.36,2.24,27,27,0,0,1,9.76,6,23.12,23.12,0,0,1,5.56,8.84A32.14,32.14,0,0,1,211,39.16a30.78,30.78,0,0,1-2,11.12,24.78,24.78,0,0,1-6,9.08,29.22,29.22,0,0,1-10,6.16,39.33,39.33,0,0,1-14,2.28c-.75,0-1.73,0-3,0s-2.56,0-4,0-2.92,0-4.44,0-2.95,0-4.28,0h-1.36ZM179.41,23.4c-.69,0-1.45,0-2.28,0a24.32,24.32,0,0,0-2.44.2v32a17.88,17.88,0,0,0,2.28.16h2.36q8.32,0,13.2-4.32t4.88-12.32a16.06,16.06,0,0,0-1.36-6.8,14,14,0,0,0-3.76-5,16.16,16.16,0,0,0-5.68-3A24.52,24.52,0,0,0,179.41,23.4Z"/><path class="cls-5" d="M223,67.64v-56c.8,0,1.84,0,3.12,0s2.63,0,4,0,2.79,0,4.12,0,2.45,0,3.36,0a29,29,0,0,1,10,1.48A16.73,16.73,0,0,1,254,16.88a14.21,14.21,0,0,1,3.36,5.56,20.73,20.73,0,0,1,1,6.4,17.87,17.87,0,0,1-1.24,6.6,16.06,16.06,0,0,1-3.72,5.6A18.27,18.27,0,0,1,247.15,45a24.45,24.45,0,0,1-8.92,1.48c-1.12,0-2.45,0-4-.08s-3-.13-4.4-.24V67.64Zm15.28-49.76c-1.12,0-2.48,0-4.08,0s-3.07.07-4.4.12v21.6c1.39.11,2.75.2,4.08.28S236.6,40,238,40q6.24,0,9.72-3a10.35,10.35,0,0,0,3.48-8.28c0-3.52-1-6-3.08-8S242.79,17.88,238.31,17.88Z"/><path class="cls-6" d="M263,34.12a21,21,0,0,1,5.52-2.4,23.63,23.63,0,0,1,6.48-.88q7.68,0,10.76,3.84t3.08,10.88V67.64h-6.08V63a13.51,13.51,0,0,1-11.52,5.2,11.05,11.05,0,0,1-8-2.92q-3-2.93-3-8.2a11.17,11.17,0,0,1,1-4.88A10.18,10.18,0,0,1,264,48.6a12.76,12.76,0,0,1,4.32-2.2,18.5,18.5,0,0,1,5.4-.76,24.73,24.73,0,0,1,4.6.48A10.52,10.52,0,0,1,282.71,48a34.65,34.65,0,0,0-.28-4.6,10,10,0,0,0-1.12-3.6,5.81,5.81,0,0,0-2.48-2.32,9.39,9.39,0,0,0-4.28-.84,17.19,17.19,0,0,0-5.56.76,32.39,32.39,0,0,0-4.36,1.88Zm10.48,28.32a9.89,9.89,0,0,0,5.72-1.52,18,18,0,0,0,3.56-3.12V53.24a13.53,13.53,0,0,0-8.08-2.4,11.34,11.34,0,0,0-2.84.36,8.08,8.08,0,0,0-2.48,1.08,5.41,5.41,0,0,0-1.72,1.84,5.21,5.21,0,0,0-.64,2.64,5.35,5.35,0,0,0,1.68,4.12A6.8,6.8,0,0,0,273.43,62.44Z"/><path class="cls-7" d="M296.71,31.64h6.4v4.24a12,12,0,0,1,3.48-3.48,10,10,0,0,1,5.56-1.4,13.12,13.12,0,0,1,3.48.36,6.72,6.72,0,0,1,2.12,1l-2.24,6a11.13,11.13,0,0,0-2.32-1.08,9.3,9.3,0,0,0-2.56-.28,6.8,6.8,0,0,0-4.8,1.56,13,13,0,0,0-2.72,3.56V67.64h-6.4Z"/><path class="cls-8" d="M320.31,21.64h6.4v10h13.2v6h-13.2V53.32A12.35,12.35,0,0,0,328.19,60q1.49,2.32,4.92,2.32a7.93,7.93,0,0,0,3.28-.64,12.58,12.58,0,0,0,2.4-1.36l2,5a13.64,13.64,0,0,1-3.8,2.12,14.83,14.83,0,0,1-5.4.92q-6.07,0-8.68-3.68T320.31,54Z"/><path class="cls-9" d="M346.55,31.64H353V36a15.12,15.12,0,0,1,5-3.56A15.7,15.7,0,0,1,364.71,31q7,0,11,3.68t4,12.16v20.8h-6.4V48c0-3.79-.85-6.57-2.56-8.36S366.47,37,363.11,37a12.77,12.77,0,0,0-5.72,1.32A14.13,14.13,0,0,0,353,41.64v26h-6.4Z"/><path class="cls-10" d="M418.07,63.72a16.7,16.7,0,0,1-6.28,3.56,23.86,23.86,0,0,1-7.24,1.16,22.76,22.76,0,0,1-8-1.32,16.54,16.54,0,0,1-10-9.76,21,21,0,0,1-1.36-7.72,21.46,21.46,0,0,1,1.24-7.36,16.66,16.66,0,0,1,9.4-10,19.8,19.8,0,0,1,7.92-1.48,17.8,17.8,0,0,1,6.52,1.2,15.57,15.57,0,0,1,8.88,8.56,16.72,16.72,0,0,1,1.32,6.72,20.36,20.36,0,0,1-.4,4.32H392.47a11,11,0,0,0,3.84,8A13.25,13.25,0,0,0,405,62.44a18.09,18.09,0,0,0,6.4-1.08,14.18,14.18,0,0,0,4.64-2.68ZM403.51,36.84a11.25,11.25,0,0,0-7.92,2.72,11,11,0,0,0-3.52,6.88h21.84a10,10,0,0,0-3-7A10.39,10.39,0,0,0,403.51,36.84Z"/><path class="cls-11" d="M426.47,31.64h6.4v4.24a12,12,0,0,1,3.48-3.48,10,10,0,0,1,5.56-1.4,13.12,13.12,0,0,1,3.48.36,6.72,6.72,0,0,1,2.12,1l-2.24,6A11.13,11.13,0,0,0,443,37.28a9.3,9.3,0,0,0-2.56-.28,6.8,6.8,0,0,0-4.8,1.56,13,13,0,0,0-2.72,3.56V67.64h-6.4Z"/><path class="cls-12" d="M469.11,57.88A3.35,3.35,0,0,0,467.67,55a14.39,14.39,0,0,0-3.6-1.8c-1.44-.51-3-1-4.68-1.52a21.39,21.39,0,0,1-4.68-2,11.55,11.55,0,0,1-3.6-3.32A9,9,0,0,1,449.67,41a9,9,0,0,1,3.44-7.48,13.88,13.88,0,0,1,8.8-2.68,19.8,19.8,0,0,1,7.64,1.32,14.7,14.7,0,0,1,4.76,2.92l-3,4.88a14.86,14.86,0,0,0-3.92-2.48,12.43,12.43,0,0,0-5.12-1A6.15,6.15,0,0,0,458,37.76a4.06,4.06,0,0,0-1.52,3.16,3.6,3.6,0,0,0,1.44,3,14.09,14.09,0,0,0,3.6,1.88q2.16.8,4.68,1.56a23.89,23.89,0,0,1,4.68,2,11.06,11.06,0,0,1,3.6,3.16,8.37,8.37,0,0,1,1.44,5.08,9.84,9.84,0,0,1-1.16,4.92,10,10,0,0,1-3.08,3.36,13.79,13.79,0,0,1-4.44,2,21.07,21.07,0,0,1-5.24.64,17.72,17.72,0,0,1-4.28-.52,24,24,0,0,1-3.92-1.32,15.41,15.41,0,0,1-3.12-1.8,8.61,8.61,0,0,1-2-2l3.6-4.56a11.67,11.67,0,0,0,2,1.72A16,16,0,0,0,457,61.48a16.79,16.79,0,0,0,2.92,1,12,12,0,0,0,2.84.36,8,8,0,0,0,4.48-1.24A4.14,4.14,0,0,0,469.11,57.88Z"/></g></g></g></svg>