<svg width="3000" height="1000" viewBox="0 0 3000 1000" fill="none" xmlns="http://www.w3.org/2000/svg">
<path d="M653.4 500.1C714.8 491 762 438.1 762 374.1C762 304 705.3 247.1 635.2 246.8H248.2V753.4H635.2C705.3 753.1 762 696.2 762 626.1C762 562.1 714.8 509.2 653.4 500.1ZM594.2 511.2C531 529.3 481.6 578.7 463.5 641.9L452.4 680.6L441.3 641.9C423.2 578.7 373.8 529.3 310.6 511.2L271.9 500.1L310.6 489C373.8 470.9 423.2 421.5 441.3 358.3L452.4 319.6L463.5 358.3C481.6 421.5 531 470.9 594.2 489L632.9 500.1L594.2 511.2Z" fill="#378ECD"/>
<path d="M227 246.6H168V753.2H227V246.6Z" fill="#378ECD"/>
<path d="M942.4 284.9H1247.4C1264.7 284.9 1279.1 288.2 1290.4 294.8C1301.8 301.4 1310.4 309.9 1316.2 320.2C1322 330.5 1324.9 341.4 1324.9 352.8C1324.9 364.2 1321.9 375.2 1316 385.9C1310.1 396.6 1301.1 405.3 1289.1 412.1C1277.1 418.8 1262 422.2 1243.9 422.2C1243.6 422.2 1243.6 422.3 1243.9 422.6C1264.8 422.6 1282.1 426.3 1295.8 433.8C1309.5 441.3 1319.7 450.9 1326.4 462.5C1333.1 474.1 1336.5 486.4 1336.5 499.3C1336.5 508.9 1334.6 518.2 1330.9 527.2C1327.2 536.2 1321.5 544.4 1314 551.8C1306.5 559.2 1297.2 565 1286.1 569.2C1275 573.5 1262.1 575.6 1247.3 575.6H942.3C942.3 558 942.3 540.5 942.3 523.1C942.3 505.7 942.3 488.2 942.3 470.6C942.3 453 942.3 435.5 942.3 418.1C942.3 400.7 942.3 383.2 942.3 365.6C942.3 352.2 942.3 338.7 942.3 325.3C942.4 311.8 942.4 298.3 942.4 284.9ZM1095.5 382.9C1095.2 382.9 1095.1 383 1095.1 383.3C1095.1 384.9 1095.1 386.6 1095.1 388.5C1095.1 390.4 1095.1 392.4 1095.1 394.3C1095.1 396.2 1095.1 398.2 1095.1 400.3C1095.1 403.1 1095.1 406.1 1095.1 409C1095.1 412 1095.1 414.8 1095.1 417.3V417.7H1095.5H1148.6C1153.3 417.7 1157.1 416.9 1160.2 415.2C1163.3 413.5 1165.6 411.3 1167.2 408.6C1168.8 405.9 1169.5 403 1169.5 399.9C1169.5 395.5 1168 391.6 1165 388.1C1162 384.6 1157.7 382.9 1152 382.9H1095.5ZM1095.1 446.1C1095.1 448.9 1095.1 451.8 1095.1 454.6C1095.1 456.7 1095.1 458.7 1095.1 460.6C1095.1 462.5 1095.1 464.4 1095.1 466.2C1095.1 468 1095.1 469.8 1095.1 471.6V472H1095.5H1150.5C1157.5 472 1162.7 470.2 1166.2 466.6C1169.7 463 1171.4 458.8 1171.4 454.2C1171.4 451.9 1171 449.7 1170.2 447.8C1169.4 445.9 1168.3 444.1 1166.9 442.4C1165.5 440.7 1163.7 439.4 1161.5 438.5C1159.3 437.6 1156.8 437.1 1153.9 437.1H1095.4L1095 437.5C1095.1 440.4 1095.1 443.3 1095.1 446.1Z" fill="white"/>
<path d="M2048.4 284.8H1940H1913.6V388.5L1940 470.4V575.5H2048.4V470.4L2074.8 388.5V284.8H2048.4Z" fill="white"/>
<path d="M2398.3 359.3V370.9L2276.2 384.9V377.9C2276.2 368.6 2271.5 363.9 2262.2 363.9C2252.9 363.9 2248.2 368.6 2248.2 377.9V473.3C2248.2 482.6 2252.9 487.3 2262.2 487.3C2271.5 487.3 2276.2 482.6 2276.2 473.3V461.3H2262.2V395.4H2398.3V491.1C2398.3 519.5 2386 541.8 2361.5 557.8C2336.9 573.8 2302.7 581.8 2258.8 581.8C2218.2 581.8 2185.3 573.9 2160.2 558C2135 542.1 2120.2 520.1 2115.8 491.9C2114.8 484.7 2113.9 475.2 2113.3 463.6C2112.7 452 2112.3 439.1 2112.3 424.8C2112.3 411.4 2112.6 399 2113.3 387.8C2113.9 376.6 2114.8 367.6 2115.8 360.9C2120.2 332.5 2135 310.4 2160.4 294.6C2185.7 278.8 2218.5 271 2258.9 271C2301.8 271 2335.5 278.8 2360.1 294.5C2384.4 310 2397.2 331.6 2398.3 359.3Z" fill="white"/>
<path d="M2749.8 284.9C2754.5 300.9 2759 317 2763.6 333.2C2768.1 349.4 2772.6 365.5 2777.2 381.7C2781.7 397.9 2786.3 414 2791 430.2C2795.7 446.4 2800.2 462.5 2804.8 478.7C2809.3 494.9 2813.8 511 2818.4 527.2C2822.9 543.4 2827.5 559.6 2832.2 575.8H2659.3L2652.7 537.8C2651.7 537.8 2650.8 537.8 2650 537.8C2649.2 537.8 2648.3 537.8 2647.3 537.8H2604.7C2603.9 537.8 2603.1 537.8 2602.4 537.8C2601.6 537.8 2600.9 537.8 2600.1 537.8L2593.5 575.8H2428C2432.7 559.5 2437.2 543.3 2441.8 527.2C2446.3 511.1 2450.8 494.9 2455.4 478.7C2459.9 462.6 2464.4 446.4 2469 430.2C2473.5 414.1 2478 397.9 2482.6 381.7C2487.1 365.6 2491.6 349.4 2496.2 333.2C2500.7 317.1 2505.2 301 2509.6 284.9H2749.8ZM2604.5 510.5H2604.9H2647.5C2647.8 510.5 2647.9 510.4 2647.9 510.1C2645.8 497.4 2644 486.3 2642.3 476.6C2640.6 466.9 2638.9 456.6 2637.1 445.6C2635.3 434.6 2633.6 424.2 2632.1 414.4C2630.5 404.6 2628.6 393.5 2626.3 381.1H2625.9C2623.8 393.5 2622 404.6 2620.3 414.4C2618.6 424.2 2616.9 434.6 2615.1 445.6C2613.3 456.6 2611.6 466.9 2610.1 476.6C2608.6 486.3 2606.7 497.5 2604.7 510.1V510.5H2604.5Z" fill="white"/>
<path d="M1721.9 284.9H1878.9C1873.2 309.2 1867.6 333.4 1862 357.6C1856.4 381.8 1850.8 406 1845.1 430.3C1839.4 454.6 1833.8 478.8 1828.2 503C1822.6 527.2 1817.2 551.4 1811.7 575.7H1631.5L1608.2 430C1608.2 429.7 1608.1 429.5 1607.8 429.2C1607.5 429.2 1607.3 429.3 1607.2 429.4C1607.1 429.5 1607 429.7 1607 430L1584.1 575.7H1415.9C1411.2 556.3 1406.6 536.9 1401.9 517.6C1397.2 498.2 1392.5 478.8 1387.8 459.5C1383 440.1 1378.3 420.7 1373.7 401.4C1369 382 1364.3 362.6 1359.6 343.3C1354.8 323.9 1350.1 304.5 1345.5 285.2H1510.6C1512.7 298.4 1514.7 311.6 1516.6 324.9C1518.5 338.2 1520.5 351.5 1522.4 364.6C1524.3 377.8 1526.3 391 1528.4 404.3C1530.5 417.6 1532.4 430.9 1534.2 444C1534.7 444 1535.1 444 1535.4 444C1535.7 444 1535.9 444 1536.2 444L1557.9 285.1H1674.6L1697.5 444H1697.9H1698.3C1702.2 417.4 1706.1 390.9 1710.1 364.5C1714.1 338 1718 311.5 1721.9 284.9Z" fill="white"/>
<path d="M2817.88 730.029H2790.29L2785.55 743.493H2774.27L2797.88 677.502H2810.39L2834 743.493H2822.62L2817.88 730.029ZM2814.85 721.211L2804.13 690.586L2793.32 721.211H2814.85Z" fill="white"/>
<path d="M2770.16 677.596L2745.41 743.493H2732.9L2708.05 677.596H2719.62L2739.15 732.399L2758.78 677.596H2770.16Z" fill="white"/>
<path d="M2668.71 677.596C2675.72 677.596 2681.85 678.955 2687.1 681.673C2692.41 684.328 2696.49 688.184 2699.33 693.241C2702.24 698.234 2703.69 704.081 2703.69 710.782C2703.69 717.482 2702.24 723.297 2699.33 728.228C2696.49 733.158 2692.41 736.951 2687.1 739.605C2681.85 742.197 2675.72 743.493 2668.71 743.493H2647.18V677.596H2668.71ZM2668.71 734.675C2676.42 734.675 2682.33 732.589 2686.44 728.417C2690.55 724.245 2692.6 718.367 2692.6 710.782C2692.6 703.133 2690.55 697.16 2686.44 692.862C2682.33 688.563 2676.42 686.414 2668.71 686.414H2657.99V734.675H2668.71Z" fill="white"/>
<path d="M2593.48 677.596V719.599C2593.48 724.593 2594.77 728.354 2597.37 730.882C2600.02 733.411 2603.69 734.675 2608.36 734.675C2613.11 734.675 2616.77 733.411 2619.36 730.882C2622.02 728.354 2623.34 724.593 2623.34 719.599V677.596H2634.15V719.41C2634.15 724.783 2632.98 729.334 2630.65 733.063C2628.31 736.793 2625.18 739.574 2621.26 741.407C2617.34 743.24 2613.01 744.156 2608.27 744.156C2603.53 744.156 2599.2 743.24 2595.28 741.407C2591.42 739.574 2588.36 736.793 2586.08 733.063C2583.81 729.334 2582.67 724.783 2582.67 719.41V677.596H2593.48Z" fill="white"/>
<path d="M2559.36 709.644C2562.9 710.276 2565.9 712.141 2568.36 715.238C2570.83 718.335 2572.06 721.843 2572.06 725.762C2572.06 729.112 2571.18 732.147 2569.41 734.865C2567.7 737.519 2565.2 739.637 2561.92 741.217C2558.63 742.734 2554.8 743.493 2550.44 743.493H2524.08V677.596H2549.21C2553.7 677.596 2557.55 678.355 2560.78 679.872C2564 681.389 2566.44 683.443 2568.08 686.035C2569.72 688.563 2570.54 691.408 2570.54 694.568C2570.54 698.361 2569.53 701.521 2567.51 704.05C2565.49 706.578 2562.77 708.443 2559.36 709.644ZM2534.89 705.282H2548.26C2551.8 705.282 2554.55 704.492 2556.51 702.912C2558.53 701.269 2559.55 698.93 2559.55 695.896C2559.55 692.925 2558.53 690.618 2556.51 688.974C2554.55 687.268 2551.8 686.414 2548.26 686.414H2534.89V705.282ZM2549.49 734.675C2553.16 734.675 2556.04 733.79 2558.12 732.02C2560.21 730.25 2561.25 727.785 2561.25 724.625C2561.25 721.401 2560.15 718.841 2557.93 716.945C2555.72 715.048 2552.78 714.1 2549.12 714.1H2534.89V734.675H2549.49Z" fill="white"/>
<path d="M2492.1 730.503L2480.62 756.672H2473.61L2480.34 730.503H2492.1Z" fill="white"/>
<path d="M2470.34 677.596V686.414H2452.8V743.493H2441.99V686.414H2424.36V677.596H2470.34Z" fill="white"/>
<path d="M2403.13 743.493L2387.96 717.134H2379.71V743.493H2368.9V677.596H2391.66C2396.72 677.596 2400.98 678.481 2404.46 680.251C2408 682.021 2410.62 684.391 2412.33 687.362C2414.1 690.333 2414.98 693.652 2414.98 697.318C2414.98 701.616 2413.72 705.535 2411.19 709.075C2408.73 712.551 2404.9 714.922 2399.72 716.186L2416.03 743.493H2403.13ZM2379.71 708.506H2391.66C2395.71 708.506 2398.74 707.495 2400.76 705.472C2402.85 703.449 2403.89 700.731 2403.89 697.318C2403.89 693.905 2402.88 691.25 2400.86 689.353C2398.83 687.394 2395.77 686.414 2391.66 686.414H2379.71V708.506Z" fill="white"/>
<path d="M2325.65 744.156C2319.52 744.156 2313.86 742.734 2308.68 739.89C2303.56 736.982 2299.48 732.968 2296.45 727.848C2293.48 722.665 2291.99 716.85 2291.99 710.402C2291.99 703.955 2293.48 698.171 2296.45 693.051C2299.48 687.931 2303.56 683.949 2308.68 681.105C2313.86 678.197 2319.52 676.743 2325.65 676.743C2331.85 676.743 2337.5 678.197 2342.62 681.105C2347.81 683.949 2351.88 687.931 2354.86 693.051C2357.83 698.171 2359.31 703.955 2359.31 710.402C2359.31 716.85 2357.83 722.665 2354.86 727.848C2351.88 732.968 2347.81 736.982 2342.62 739.89C2337.5 742.734 2331.85 744.156 2325.65 744.156ZM2325.65 734.77C2330.01 734.77 2333.9 733.79 2337.31 731.831C2340.73 729.808 2343.38 726.963 2345.28 723.297C2347.24 719.568 2348.22 715.27 2348.22 710.402C2348.22 705.535 2347.24 701.269 2345.28 697.602C2343.38 693.936 2340.73 691.123 2337.31 689.164C2333.9 687.204 2330.01 686.225 2325.65 686.225C2321.29 686.225 2317.4 687.204 2313.99 689.164C2310.58 691.123 2307.89 693.936 2305.93 697.602C2304.03 701.269 2303.09 705.535 2303.09 710.402C2303.09 715.27 2304.03 719.568 2305.93 723.297C2307.89 726.963 2310.58 729.808 2313.99 731.831C2317.4 733.79 2321.29 734.77 2325.65 734.77Z" fill="white"/>
<path d="M2261.13 744.156C2256.7 744.156 2252.72 743.398 2249.18 741.881C2245.64 740.301 2242.86 738.088 2240.84 735.244C2238.82 732.399 2237.8 729.081 2237.8 725.288H2249.37C2249.62 728.133 2250.73 730.471 2252.69 732.305C2254.71 734.138 2257.53 735.054 2261.13 735.054C2264.86 735.054 2267.77 734.169 2269.85 732.399C2271.94 730.566 2272.98 728.228 2272.98 725.383C2272.98 723.171 2272.32 721.369 2270.99 719.979C2269.73 718.588 2268.11 717.513 2266.15 716.755C2264.26 715.996 2261.6 715.175 2258.19 714.29C2253.89 713.152 2250.38 712.014 2247.67 710.876C2245.01 709.675 2242.74 707.842 2240.84 705.377C2238.94 702.912 2237.99 699.625 2237.99 695.516C2237.99 691.724 2238.94 688.405 2240.84 685.561C2242.74 682.716 2245.39 680.536 2248.8 679.019C2252.22 677.502 2256.17 676.743 2260.66 676.743C2267.04 676.743 2272.25 678.355 2276.3 681.579C2280.41 684.739 2282.68 689.101 2283.13 694.663H2271.18C2270.99 692.261 2269.85 690.207 2267.77 688.5C2265.68 686.793 2262.93 685.94 2259.52 685.94C2256.42 685.94 2253.89 686.73 2251.93 688.31C2249.97 689.891 2248.99 692.166 2248.99 695.137C2248.99 697.16 2249.59 698.835 2250.79 700.162C2252.06 701.427 2253.64 702.438 2255.54 703.196C2257.43 703.955 2260.02 704.777 2263.31 705.662C2267.67 706.863 2271.21 708.064 2273.93 709.265C2276.71 710.466 2279.05 712.33 2280.95 714.859C2282.91 717.324 2283.88 720.642 2283.88 724.814C2283.88 728.164 2282.97 731.325 2281.14 734.296C2279.37 737.267 2276.74 739.669 2273.27 741.502C2269.85 743.272 2265.81 744.156 2261.13 744.156Z" fill="white"/>
<path d="M2201.55 686.319V705.662H2224.3V714.479H2201.55V734.675H2227.15V743.493H2190.74V677.502H2227.15V686.319H2201.55Z" fill="white"/>
<path d="M2166.1 743.493L2150.93 717.134H2142.68V743.493H2131.87V677.596H2154.63C2159.68 677.596 2163.95 678.481 2167.43 680.251C2170.97 682.021 2173.59 684.391 2175.3 687.362C2177.07 690.333 2177.95 693.652 2177.95 697.318C2177.95 701.616 2176.69 705.535 2174.16 709.075C2171.69 712.551 2167.87 714.922 2162.69 716.186L2179 743.493H2166.1ZM2142.68 708.506H2154.63C2158.67 708.506 2161.71 707.495 2163.73 705.472C2165.82 703.449 2166.86 700.731 2166.86 697.318C2166.86 693.905 2165.85 691.25 2163.83 689.353C2161.8 687.394 2158.74 686.414 2154.63 686.414H2142.68V708.506Z" fill="white"/>
<path d="M2082.95 730.029H2055.35L2050.61 743.493H2039.33L2062.94 677.502H2075.45L2099.06 743.493H2087.69L2082.95 730.029ZM2079.91 721.211L2069.2 690.586L2058.39 721.211H2079.91Z" fill="white"/>
<path d="M2012.94 734.77H2035.22V743.493H2002.13V677.596H2012.94V734.77Z" fill="white"/>
<path d="M1976.79 730.029H1949.2L1944.46 743.493H1933.18L1956.78 677.502H1969.3L1992.91 743.493H1981.53L1976.79 730.029ZM1973.76 721.211L1963.04 690.586L1952.23 721.211H1973.76Z" fill="white"/>
<path d="M1929.07 677.596L1904.32 743.493H1891.8L1866.96 677.596H1878.53L1898.06 732.399L1917.69 677.596H1929.07Z" fill="white"/>
<path d="M1846.93 730.029H1819.34L1814.6 743.493H1803.32L1826.93 677.502H1839.44L1863.05 743.493H1851.67L1846.93 730.029ZM1843.9 721.211L1833.18 690.586L1822.37 721.211H1843.9Z" fill="white"/>
<path d="M1766.25 718.651C1764.29 718.651 1762.65 717.988 1761.32 716.66C1760 715.333 1759.33 713.689 1759.33 711.73C1759.33 709.77 1760 708.127 1761.32 706.799C1762.65 705.472 1764.29 704.808 1766.25 704.808C1768.15 704.808 1769.76 705.472 1771.09 706.799C1772.42 708.127 1773.08 709.77 1773.08 711.73C1773.08 713.689 1772.42 715.333 1771.09 716.66C1769.76 717.988 1768.15 718.651 1766.25 718.651Z" fill="white"/>
<path d="M1724.77 743.493H1713.97L1681.44 694.284V743.493H1670.64V677.502H1681.44L1713.97 726.616V677.502H1724.77V743.493Z" fill="white"/>
<path d="M1627.38 744.156C1621.25 744.156 1615.59 742.734 1610.41 739.89C1605.29 736.982 1601.21 732.968 1598.18 727.848C1595.21 722.665 1593.72 716.85 1593.72 710.402C1593.72 703.955 1595.21 698.171 1598.18 693.051C1601.21 687.931 1605.29 683.949 1610.41 681.105C1615.59 678.197 1621.25 676.743 1627.38 676.743C1633.58 676.743 1639.23 678.197 1644.35 681.105C1649.54 683.949 1653.61 687.931 1656.59 693.051C1659.56 698.171 1661.04 703.955 1661.04 710.402C1661.04 716.85 1659.56 722.665 1656.59 727.848C1653.61 732.968 1649.54 736.982 1644.35 739.89C1639.23 742.734 1633.58 744.156 1627.38 744.156ZM1627.38 734.77C1631.74 734.77 1635.63 733.79 1639.04 731.831C1642.46 729.808 1645.11 726.963 1647.01 723.297C1648.97 719.568 1649.95 715.27 1649.95 710.402C1649.95 705.535 1648.97 701.269 1647.01 697.602C1645.11 693.936 1642.46 691.123 1639.04 689.164C1635.63 687.204 1631.74 686.225 1627.38 686.225C1623.02 686.225 1619.13 687.204 1615.72 689.164C1612.31 691.123 1609.62 693.936 1607.66 697.602C1605.76 701.269 1604.82 705.535 1604.82 710.402C1604.82 715.27 1605.76 719.568 1607.66 723.297C1609.62 726.963 1612.31 729.808 1615.72 731.831C1619.13 733.79 1623.02 734.77 1627.38 734.77Z" fill="white"/>
<path d="M1584.18 677.596V743.493H1573.37V677.596H1584.18Z" fill="white"/>
<path d="M1563.47 677.596V686.414H1545.92V743.493H1535.12V686.414H1517.48V677.596H1563.47Z" fill="white"/>
<path d="M1507.75 677.596V743.493H1496.94V677.596H1507.75Z" fill="white"/>
<path d="M1452.28 677.596C1459.3 677.596 1465.43 678.955 1470.67 681.673C1475.98 684.328 1480.06 688.184 1482.91 693.241C1485.81 698.234 1487.27 704.081 1487.27 710.782C1487.27 717.482 1485.81 723.297 1482.91 728.228C1480.06 733.158 1475.98 736.951 1470.67 739.605C1465.43 742.197 1459.3 743.493 1452.28 743.493H1430.76V677.596H1452.28ZM1452.28 734.675C1459.99 734.675 1465.9 732.589 1470.01 728.417C1474.12 724.245 1476.17 718.367 1476.17 710.782C1476.17 703.133 1474.12 697.16 1470.01 692.862C1465.9 688.563 1459.99 686.414 1452.28 686.414H1441.57V734.675H1452.28Z" fill="white"/>
<path d="M1392.89 686.319V705.662H1415.64V714.479H1392.89V734.675H1418.49V743.493H1382.08V677.502H1418.49V686.319H1392.89Z" fill="white"/>
<path d="M1282.6 710.402C1282.6 703.955 1284.08 698.171 1287.05 693.051C1290.09 687.931 1294.17 683.949 1299.29 681.105C1304.47 678.197 1310.13 676.743 1316.26 676.743C1323.27 676.743 1329.5 678.481 1334.94 681.958C1340.44 685.371 1344.42 690.238 1346.88 696.559H1333.89C1332.19 693.083 1329.82 690.491 1326.78 688.785C1323.75 687.078 1320.24 686.225 1316.26 686.225C1311.9 686.225 1308.01 687.204 1304.6 689.164C1301.18 691.123 1298.5 693.936 1296.54 697.602C1294.64 701.269 1293.69 705.535 1293.69 710.402C1293.69 715.27 1294.64 719.536 1296.54 723.202C1298.5 726.869 1301.18 729.713 1304.6 731.736C1308.01 733.695 1311.9 734.675 1316.26 734.675C1320.24 734.675 1323.75 733.822 1326.78 732.115C1329.82 730.408 1332.19 727.817 1333.89 724.34H1346.88C1344.42 730.661 1340.44 735.528 1334.94 738.942C1329.5 742.355 1323.27 744.062 1316.26 744.062C1310.06 744.062 1304.41 742.639 1299.29 739.795C1294.17 736.887 1290.09 732.873 1287.05 727.753C1284.08 722.633 1282.6 716.85 1282.6 710.402Z" fill="white"/>
<path d="M1273.05 677.596V743.493H1262.24V677.596H1273.05Z" fill="white"/>
<path d="M1252.34 677.596V686.414H1234.8V743.493H1223.99V686.414H1206.35V677.596H1252.34Z" fill="white"/>
<path d="M1184.43 730.029H1156.84L1152.1 743.493H1140.81L1164.42 677.502H1176.94L1200.55 743.493H1189.17L1184.43 730.029ZM1181.39 721.211L1170.68 690.586L1159.87 721.211H1181.39Z" fill="white"/>
<path d="M1131.55 677.596V743.493H1120.74V677.596H1131.55Z" fill="white"/>
<path d="M1096.11 743.493L1080.94 717.134H1072.69V743.493H1061.88V677.596H1084.63C1089.69 677.596 1093.96 678.481 1097.43 680.251C1100.97 682.021 1103.6 684.391 1105.3 687.362C1107.07 690.333 1107.96 693.652 1107.96 697.318C1107.96 701.616 1106.69 705.535 1104.17 709.075C1101.7 712.551 1097.88 714.922 1092.69 716.186L1109 743.493H1096.11ZM1072.69 708.506H1084.63C1088.68 708.506 1091.71 707.495 1093.74 705.472C1095.82 703.449 1096.87 700.731 1096.87 697.318C1096.87 693.905 1095.85 691.25 1093.83 689.353C1091.81 687.394 1088.74 686.414 1084.63 686.414H1072.69V708.506Z" fill="white"/>
<path d="M1017.22 677.596C1024.24 677.596 1030.37 678.955 1035.62 681.673C1040.93 684.328 1045 688.184 1047.85 693.241C1050.76 698.234 1052.21 704.081 1052.21 710.782C1052.21 717.482 1050.76 723.297 1047.85 728.228C1045 733.158 1040.93 736.951 1035.62 739.605C1030.37 742.197 1024.24 743.493 1017.22 743.493H995.699V677.596H1017.22ZM1017.22 734.675C1024.93 734.675 1030.84 732.589 1034.95 728.417C1039.06 724.245 1041.12 718.367 1041.12 710.782C1041.12 703.133 1039.06 697.16 1034.95 692.862C1030.84 688.563 1024.93 686.414 1017.22 686.414H1006.51V734.675H1017.22Z" fill="white"/>
<path d="M970.359 730.029H942.767L938.027 743.493H926.744L950.353 677.502H962.868L986.477 743.493H975.099L970.359 730.029ZM967.325 721.211L956.61 690.586L945.802 721.211H967.325Z" fill="white"/>
</svg>
