<svg width="512" height="512" viewBox="0 0 512 512" fill="none" xmlns="http://www.w3.org/2000/svg">
  <rect width="512" height="512" rx="104" fill="#0A1A2E"/>
  <g transform="translate(-2.3 -21.7) scale(0.5556)">
    <path d="M653.4 500.1C714.8 491 762 438.1 762 374.1C762 304 705.3 247.1 635.2 246.8H248.2V753.4H635.2C705.3 753.1 762 696.2 762 626.1C762 562.1 714.8 509.2 653.4 500.1ZM594.2 511.2C531 529.3 481.6 578.7 463.5 641.9L452.4 680.6L441.3 641.9C423.2 578.7 373.8 529.3 310.6 511.2L271.9 500.1L310.6 489C373.8 470.9 423.2 421.5 441.3 358.3L452.4 319.6L463.5 358.3C481.6 421.5 531 470.9 594.2 489L632.9 500.1L594.2 511.2Z" fill="#378ECD"/>
    <path d="M227 246.6H168V753.2H227V246.6Z" fill="#378ECD"/>
  </g>
</svg>
