<?xml version="1.0" encoding="UTF-8"?>
<svg version="1.1" xmlns="http://www.w3.org/2000/svg" width="303" height="72">
<path d="M0 0 C23.76 0 47.52 0 72 0 C72 23.76 72 47.52 72 72 C63.75 72 55.5 72 47 72 C47 64.08 47 56.16 47 48 C39.41 48 31.82 48 24 48 C24 40.41 24 32.82 24 25 C16.08 25 8.16 25 0 25 C0 16.75 0 8.5 0 0 Z " fill="#D88C44" transform="translate(0,0)"/>
<path d="M0 0 C2.97 0 5.94 0 9 0 C12.3 6.93 15.6 13.86 19 21 C21.49997301 15.96072963 21.49997301 15.96072963 23.99536133 10.91918945 C24.66337478 9.57790526 25.34374767 8.24273408 26.03369141 6.91259766 C26.84720282 5.30242879 27.566188 3.64500519 28.26171875 1.98046875 C28.83535156 1.32691406 29.40898437 0.67335937 30 0 C32.64 0 35.28 0 38 0 C38 10.23 38 20.46 38 31 C35.69 31 33.38 31 31 31 C30.505 24.565 30.505 24.565 30 18 C28.02 22.29 26.04 26.58 24 31 C21.03 31 18.06 31 15 31 C13.02 27.04 11.04 23.08 9 19 C8.67 22.96 8.34 26.92 8 31 C5.36 31 2.72 31 0 31 C0 20.77 0 10.54 0 0 Z " fill="#000100" transform="translate(133,0)"/>
<path d="M0 0 C6.8371875 -0.0928125 6.8371875 -0.0928125 13.8125 -0.1875 C15.96422729 -0.22846802 15.96422729 -0.22846802 18.15942383 -0.27026367 C19.8536145 -0.28150269 19.8536145 -0.28150269 21.58203125 -0.29296875 C22.73936768 -0.3086792 23.8967041 -0.32438965 25.08911133 -0.34057617 C28 -0 28 -0 29.8762207 1.16479492 C31.44717416 3.73026465 31.38841837 5.65814583 31.3984375 8.65625 C31.40423828 10.31333984 31.40423828 10.31333984 31.41015625 12.00390625 C31.39855469 13.15761719 31.38695312 14.31132812 31.375 15.5 C31.38660156 16.65371094 31.39820313 17.80742187 31.41015625 18.99609375 C31.40628906 20.10082031 31.40242188 21.20554687 31.3984375 22.34375 C31.39505371 23.35630859 31.39166992 24.36886719 31.38818359 25.41210938 C31 28 31 28 29.8762207 29.83520508 C27.09174684 31.56386152 24.83668996 31.33714964 21.58203125 31.29296875 C20.4525708 31.28547607 19.32311035 31.2779834 18.15942383 31.27026367 C16.72493896 31.24295166 15.2904541 31.21563965 13.8125 31.1875 C9.254375 31.125625 4.69625 31.06375 0 31 C0 20.77 0 10.54 0 0 Z M7 6 C7 7.65 7 9.3 7 11 C12.61 11 18.22 11 24 11 C24 9.35 24 7.7 24 6 C18.39 6 12.78 6 7 6 Z M7 19 C7 20.65 7 22.3 7 24 C12.61 24 18.22 24 24 24 C24 22.35 24 20.7 24 19 C18.39 19 12.78 19 7 19 Z " fill="#000000" transform="translate(176,0)"/>
<path d="M0 0 C1.24072266 -0.01998047 2.48144531 -0.03996094 3.75976562 -0.06054688 C5.54737305 -0.05958008 5.54737305 -0.05958008 7.37109375 -0.05859375 C8.46220459 -0.06044678 9.55331543 -0.0622998 10.67749023 -0.06420898 C14.27992565 0.56226176 15.44635159 1.48217306 17.5625 4.4375 C18.08007812 6.93945313 18.08007812 6.93945313 18.09375 9.71875 C18.10148437 11.22888672 18.10148437 11.22888672 18.109375 12.76953125 C18.09390625 13.81496094 18.0784375 14.86039063 18.0625 15.9375 C18.07796875 16.98292969 18.0934375 18.02835938 18.109375 19.10546875 C18.10421875 20.11222656 18.0990625 21.11898437 18.09375 22.15625 C18.08923828 23.07341797 18.08472656 23.99058594 18.08007812 24.93554688 C17.38855118 28.27836204 16.30913872 29.43918839 13.5625 31.4375 C10.78515625 31.93920898 10.78515625 31.93920898 7.625 31.93359375 C5.91183594 31.93456055 5.91183594 31.93456055 4.1640625 31.93554688 C2.97554688 31.91556641 1.78703125 31.89558594 0.5625 31.875 C-0.62601562 31.88208984 -1.81453125 31.88917969 -3.0390625 31.89648438 C-11.64823895 31.8333245 -11.64823895 31.8333245 -14.77758789 30.26391602 C-17.06829589 27.74342968 -16.93976841 26.15529652 -16.93359375 22.78125 C-16.93423828 21.67652344 -16.93488281 20.57179688 -16.93554688 19.43359375 C-16.90557617 17.70302734 -16.90557617 17.70302734 -16.875 15.9375 C-16.88208984 14.78378906 -16.88917969 13.63007812 -16.89648438 12.44140625 C-16.83296351 4.06642486 -16.83296351 4.06642486 -15.2890625 1.61108398 C-11.00386174 -1.10502362 -4.90258173 -0.02792771 0 0 Z M-9.4375 7.4375 C-9.4375 13.0475 -9.4375 18.6575 -9.4375 24.4375 C-6.29161056 24.46433697 -3.14594729 24.48425902 0 24.5 C0.89783203 24.50837891 1.79566406 24.51675781 2.72070312 24.52539062 C4.00170898 24.53022461 4.00170898 24.53022461 5.30859375 24.53515625 C6.09935303 24.54039307 6.8901123 24.54562988 7.70483398 24.55102539 C9.57842689 24.64245909 9.57842689 24.64245909 10.5625 23.4375 C10.66225032 20.92613896 10.70132183 18.44846585 10.6875 15.9375 C10.69136719 15.23496094 10.69523437 14.53242187 10.69921875 13.80859375 C11.00640931 10.33321192 11.00640931 10.33321192 9.5625 7.4375 C8.14679877 7.35098389 6.726905 7.33045096 5.30859375 7.33984375 C4.02758789 7.34467773 4.02758789 7.34467773 2.72070312 7.34960938 C1.82287109 7.35798828 0.92503906 7.36636719 0 7.375 C-0.90169922 7.37951172 -1.80339844 7.38402344 -2.73242188 7.38867188 C-4.96747589 7.40049756 -7.20249602 7.41843362 -9.4375 7.4375 Z " fill="#010101" transform="translate(285.4375,40.5625)"/>
<path d="M0 0 C6.8371875 -0.12375 6.8371875 -0.12375 13.8125 -0.25 C15.24698486 -0.28641602 16.68146973 -0.32283203 18.15942383 -0.36035156 C19.28888428 -0.3703418 20.41834473 -0.38033203 21.58203125 -0.390625 C23.31803589 -0.4220459 23.31803589 -0.4220459 25.08911133 -0.45410156 C28 0 28 0 29.87182617 1.80371094 C31.54074987 5.05271279 31.4714225 7.87065747 31.5 11.5 C31.5309375 12.8096875 31.561875 14.119375 31.59375 15.46875 C31 19 31 19 28.46875 21.46875 C27.6540625 21.9740625 26.839375 22.479375 26 23 C26.66 23.94875 27.32 24.8975 28 25.875 C30 29 30 29 30 31 C24.83405051 31.61290926 24.83405051 31.61290926 22 31 C19.76385711 28.97631724 18.28125697 26.72267106 17 24 C17 23.34 17 22.68 17 22 C13.7 22 10.4 22 7 22 C7 24.97 7 27.94 7 31 C4.69 31 2.38 31 0 31 C0 20.77 0 10.54 0 0 Z M7 7 C7 9.64 7 12.28 7 15 C12.61 15 18.22 15 24 15 C24 12.36 24 9.72 24 7 C18.39 7 12.78 7 7 7 Z " fill="#000100" transform="translate(132,41)"/>
<path d="M0 0 C1.09634766 -0.00563965 2.19269531 -0.0112793 3.32226562 -0.01708984 C4.51722656 -0.02353516 5.7121875 -0.02998047 6.94335938 -0.03662109 C8.19246094 -0.01728516 9.4415625 0.00205078 10.72851562 0.02197266 C11.97761719 0.00263672 13.22671875 -0.01669922 14.51367188 -0.03662109 C15.70863281 -0.03017578 16.90359375 -0.02373047 18.13476562 -0.01708984 C19.77928711 -0.00863037 19.77928711 -0.00863037 21.45703125 0 C24.22851562 0.64697266 24.22851562 0.64697266 26.09765625 3.01269531 C27.29491405 5.8016443 27.48564309 7.64715224 27.22851562 10.64697266 C24.58851562 10.64697266 21.94851562 10.64697266 19.22851562 10.64697266 C19.22851562 9.65697266 19.22851562 8.66697266 19.22851562 7.64697266 C13.28851563 7.64697266 7.34851563 7.64697266 1.22851562 7.64697266 C1.55851562 12.92697266 1.88851562 18.20697266 2.22851562 23.64697266 C7.83851562 23.97697266 13.44851562 24.30697266 19.22851562 24.64697266 C19.22851562 23.65697266 19.22851562 22.66697266 19.22851562 21.64697266 C21.86851563 21.64697266 24.50851563 21.64697266 27.22851562 21.64697266 C26.62134669 28.08296336 26.62134669 28.08296336 25.0390625 30.35473633 C22.49967577 32.16716539 20.67251966 32.01938101 17.57226562 32.01025391 C15.91517578 32.00928711 15.91517578 32.00928711 14.22460938 32.00830078 C12.49404297 31.98413086 12.49404297 31.98413086 10.72851562 31.95947266 C9.57480469 31.96269531 8.42109375 31.96591797 7.23242188 31.96923828 C-1.37090678 31.91402439 -1.37090678 31.91402439 -4.77148438 29.64697266 C-6.24558636 25.22466671 -5.99644267 20.90468849 -6.02148438 16.27197266 C-6.04210937 15.32580078 -6.06273438 14.37962891 -6.08398438 13.40478516 C-6.08914062 12.48697266 -6.09429687 11.56916016 -6.09960938 10.62353516 C-6.10895508 9.78902832 -6.11830078 8.95452148 -6.12792969 8.09472656 C-5.49963866 3.78017463 -4.43083747 1.03433045 0 0 Z " fill="#000200" transform="translate(100.771484375,40.35302734375)"/>
<path d="M0 0 C4.393125 -0.061875 8.78625 -0.12375 13.3125 -0.1875 C15.38591675 -0.22846802 15.38591675 -0.22846802 17.5012207 -0.27026367 C18.59007568 -0.27775635 19.67893066 -0.28524902 20.80078125 -0.29296875 C21.91622314 -0.3086792 23.03166504 -0.32438965 24.1809082 -0.34057617 C27 0 27 0 28.86254883 1.2878418 C30.82085928 4.23560552 30.42969797 7.58441575 30.375 11 C30.38660156 11.72445312 30.39820313 12.44890625 30.41015625 13.1953125 C30.38095465 18.47106811 30.38095465 18.47106811 28.7668457 20.7121582 C26.47860611 22.38004045 25.14462258 22.34671253 22.33203125 22.29296875 C21.43935547 22.28330078 20.54667969 22.27363281 19.62695312 22.26367188 C18.23379883 22.2259668 18.23379883 22.2259668 16.8125 22.1875 C15.87212891 22.17396484 14.93175781 22.16042969 13.96289062 22.14648438 C11.64168265 22.11113603 9.32076912 22.05732915 7 22 C7 24.97 7 27.94 7 31 C4.69 31 2.38 31 0 31 C0 20.77 0 10.54 0 0 Z M7 7 C7 9.64 7 12.28 7 15 C12.28 15 17.56 15 23 15 C23 12.36 23 9.72 23 7 C17.72 7 12.44 7 7 7 Z " fill="#000101" transform="translate(198,41)"/>
<path d="M0 0 C7.92 0 15.84 0 24 0 C24 7.92 24 15.84 24 24 C16.08 24 8.16 24 0 24 C0 16.08 0 8.16 0 0 Z " fill="#D78C45" transform="translate(0,48)"/>
<path d="M0 0 C3.3 0 6.6 0 10 0 C11.79612045 4.03970177 13.58610378 8.08209455 15.375 12.125 C15.88289063 13.26710938 16.39078125 14.40921875 16.9140625 15.5859375 C17.40390625 16.69453125 17.89375 17.803125 18.3984375 18.9453125 C19.07398682 20.46922607 19.07398682 20.46922607 19.76318359 22.02392578 C20.99143267 24.97938497 22.0264477 27.95218525 23 31 C20.36 31 17.72 31 15 31 C14.34 29.02 13.68 27.04 13 25 C7.72 25 2.44 25 -3 25 C-3.66 26.98 -4.32 28.96 -5 31 C-7.64 31 -10.28 31 -13 31 C-11.39643012 27.14558477 -9.79203688 23.29151277 -8.1875 19.4375 C-7.50977539 17.80844727 -7.50977539 17.80844727 -6.81835938 16.14648438 C-4.57224077 10.75252072 -2.31650701 5.36413749 0 0 Z M5 7 C4.32880451 8.4562545 3.66318193 9.91507867 3 11.375 C2.62875 12.18710938 2.2575 12.99921875 1.875 13.8359375 C0.87504987 15.91998433 0.87504987 15.91998433 1 18 C3.64 18 6.28 18 9 18 C8.32829194 14.1936543 7.27253436 10.64793184 6 7 C5.67 7 5.34 7 5 7 Z " fill="#000200" transform="translate(108,0)"/>
<path d="M0 0 C10.23 0 20.46 0 31 0 C31 2.31 31 4.62 31 7 C27.04 7 23.08 7 19 7 C19 14.92 19 22.84 19 31 C16.69 31 14.38 31 12 31 C12 23.08 12 15.16 12 7 C8.04 7 4.08 7 0 7 C0 4.69 0 2.38 0 0 Z " fill="#010101" transform="translate(233,41)"/>
<path d="M0 0 C2.97 0 5.94 0 9 0 C10.98 3.63 12.96 7.26 15 11 C15.969375 9.55625 16.93875 8.1125 17.9375 6.625 C18.75541016 5.40683594 18.75541016 5.40683594 19.58984375 4.1640625 C21.01093879 2.07280816 21.01093879 2.07280816 22 0 C24.97 0 27.94 0 31 0 C29.72984669 2.22955653 28.45889952 4.45865426 27.1875 6.6875 C26.65286133 7.62625977 26.65286133 7.62625977 26.10742188 8.58398438 C25.75615234 9.19951172 25.40488281 9.81503906 25.04296875 10.44921875 C24.52416138 11.36513794 24.52416138 11.36513794 23.99487305 12.29956055 C23.14424534 13.75345552 22.21954901 15.16358147 21.28125 16.5625 C19.70501416 19.56119258 19.49761189 21.94346365 19.3125 25.3125 C19.21388672 26.91544922 19.21388672 26.91544922 19.11328125 28.55078125 C19.07589844 29.35902344 19.03851563 30.16726562 19 31 C16.69 31 14.38 31 12 31 C12.08314453 30.01386719 12.08314453 30.01386719 12.16796875 29.0078125 C12.23973601 18.41496496 6.71613324 11.04264566 0.99389648 2.57543945 C0 1 0 1 0 0 Z " fill="#000200" transform="translate(165,41)"/>
</svg>
